<svg width="26" height="14" viewBox="0 0 26 14" fill="none" xmlns="http://www.w3.org/2000/svg">
<path d="M1.01563 8.01563L22.5244 8.01562L18.9614 11.5614C18.5638 11.9571 18.5623 12.6001 18.958 12.9977C19.3537 13.3953 19.9968 13.3968 20.3944 13.0011L25.7012 7.71987C25.7016 7.71957 25.7018 7.71921 25.7021 7.71891C26.0987 7.32322 26.0999 6.67809 25.7022 6.28109C25.7019 6.28078 25.7016 6.28043 25.7013 6.28012L20.3945 0.998867C19.9969 0.603281 19.3538 0.604651 18.9581 1.00232C18.5624 1.39989 18.5639 2.04293 18.9615 2.43862L22.5244 5.98437L1.01563 5.98437C0.454704 5.98437 8.93721e-06 6.43907 8.98625e-06 7C9.03529e-06 7.56093 0.454704 8.01563 1.01563 8.01563Z" fill="white"/>
</svg>
